<svg width="3481" height="2105" viewBox="0 0 3481 2105" fill="none" xmlns="http://www.w3.org/2000/svg">
<path d="M2139.27 1553.1C2176.29 1568.74 2202.16 1602.95 2207.12 1642.84L2223.5 1774.42C2228.46 1814.3 2211.77 1853.81 2179.71 1878.05L2073.95 1958.02C2041.89 1982.26 1999.33 1987.56 1962.31 1971.91L1840.17 1920.3C1803.14 1904.66 1777.28 1870.45 1772.32 1830.57L1755.94 1698.99C1750.98 1659.1 1767.67 1619.6 1799.73 1595.36L1905.49 1515.39C1937.55 1491.15 1980.11 1485.85 2017.13 1501.49L2139.27 1553.1Z" fill="#00142D"/>
<path d="M689.673 440.468C739.037 461.327 773.523 506.936 780.142 560.115L801.976 735.557C808.595 788.736 786.339 841.407 743.594 873.729L602.574 980.358C559.828 1012.68 503.087 1019.74 453.722 998.884L290.868 930.072C241.504 909.214 207.018 863.605 200.399 810.425L178.565 634.984C171.947 581.804 194.202 529.134 236.947 496.812L377.967 390.182C420.713 357.861 477.455 350.799 526.819 371.657L689.673 440.468Z" fill="#00142D"/>
<path d="M3189.68 245.468C3239.04 266.327 3273.53 311.936 3280.15 365.115L3301.98 540.557C3308.6 593.736 3286.35 646.407 3243.6 678.729L3102.58 785.358C3059.84 817.68 3003.09 824.742 2953.73 803.884L2790.88 735.072C2741.51 714.214 2707.02 668.605 2700.41 615.425L2678.57 439.984C2671.95 386.804 2694.21 334.134 2736.95 301.812L2877.97 195.182C2920.72 162.861 2977.46 155.799 3026.83 176.657L3189.68 245.468Z" fill="#00142D"/>
<path d="M911.836 952.734C936.518 963.163 953.762 985.968 957.071 1012.56L967.988 1100.28C971.297 1126.87 960.17 1153.2 938.797 1169.36L868.287 1222.68C846.914 1238.84 818.543 1242.37 793.861 1231.94L712.434 1197.54C687.752 1187.11 670.509 1164.3 667.2 1137.71L656.282 1049.99C652.973 1023.4 664.101 997.067 685.474 980.906L755.983 927.591C777.356 911.43 805.727 907.899 830.409 918.328L911.836 952.734Z" fill="#00142D"/>
</svg>
