<svg width="2880" height="1902" viewBox="0 0 2880 1902" fill="none" xmlns="http://www.w3.org/2000/svg">
<path d="M1972.25 1350.1C2009.28 1365.74 2035.14 1399.95 2040.11 1439.84L2056.48 1571.42C2061.45 1611.3 2044.75 1650.81 2012.7 1675.05L1906.93 1755.02C1874.87 1779.26 1832.31 1784.56 1795.29 1768.91L1673.15 1717.3C1636.13 1701.66 1610.26 1667.45 1605.3 1627.57L1588.92 1495.99C1583.96 1456.1 1600.65 1416.6 1632.71 1392.36L1738.48 1312.39C1770.53 1288.15 1813.09 1282.85 1850.11 1298.49L1972.25 1350.1Z" fill="#00142D"/>
<path d="M522.673 237.468C572.037 258.327 606.523 303.936 613.142 357.115L634.976 532.557C641.595 585.736 619.339 638.407 576.594 670.729L435.574 777.358C392.828 809.68 336.087 816.742 286.722 795.884L123.868 727.072C74.5044 706.214 40.0178 660.605 33.3994 607.425L11.5649 431.984C4.94651 378.804 27.2018 326.134 69.9475 293.812L210.967 187.182C253.713 154.861 310.455 147.799 359.819 168.657L522.673 237.468Z" fill="#00142D"/>
<path d="M3022.67 42.4685C3072.04 63.3266 3106.52 108.936 3113.14 162.115L3134.98 337.557C3141.59 390.736 3119.34 443.407 3076.59 475.729L2935.57 582.358C2892.83 614.68 2836.09 621.742 2786.72 600.884L2623.87 532.072C2574.5 511.214 2540.02 465.605 2533.4 412.425L2511.56 236.984C2504.95 183.804 2527.2 131.134 2569.95 98.812L2710.97 -7.81785C2753.71 -40.1394 2810.45 -47.2011 2859.82 -26.3431L3022.67 42.4685Z" fill="#00142D"/>
<path d="M744.836 749.734C769.518 760.163 786.762 782.968 790.071 809.558L800.988 897.278C804.297 923.868 793.17 950.204 771.797 966.364L701.287 1019.68C679.914 1035.84 651.543 1039.37 626.861 1028.94L545.434 994.536C520.752 984.107 503.509 961.303 500.2 934.713L489.282 846.992C485.973 820.402 497.101 794.067 518.474 777.906L588.983 724.591C610.356 708.43 638.727 704.899 663.409 715.328L744.836 749.734Z" fill="#00142D"/>
</svg>
