<svg width="148" height="184" viewBox="0 0 148 184" fill="none" xmlns="http://www.w3.org/2000/svg">
<rect width="148" height="148" rx="50" fill="#D9D9D9" fill-opacity="0.05"/>
<mask id="path-2-inside-1_89_144" fill="white">
<path d="M96 129C104.284 129 111.157 122.225 109.614 114.086C107.911 105.102 104.682 96.8261 100.163 90.1091C93.2241 79.7946 83.813 74 74 74C64.187 74 54.7759 79.7946 47.8371 90.1091C43.3184 96.8261 40.0892 105.102 38.3863 114.086C36.8435 122.225 43.7157 129 52 129L74 129H96Z"/>
</mask>
<path d="M96 129C104.284 129 111.157 122.225 109.614 114.086C107.911 105.102 104.682 96.8261 100.163 90.1091C93.2241 79.7946 83.813 74 74 74C64.187 74 54.7759 79.7946 47.8371 90.1091C43.3184 96.8261 40.0892 105.102 38.3863 114.086C36.8435 122.225 43.7157 129 52 129L74 129H96Z" fill="url(#paint0_linear_89_144)" stroke="#6B6B6B" stroke-opacity="0.1" stroke-width="10" mask="url(#path-2-inside-1_89_144)"/>
<rect x="50" y="20" width="48" height="48" rx="22" fill="url(#paint1_linear_89_144)"/>
<rect x="52.5" y="22.5" width="43" height="43" rx="19.5" stroke="#6B6B6B" stroke-opacity="0.1" stroke-width="5"/>
<defs>
<linearGradient id="paint0_linear_89_144" x1="74" y1="-20.5" x2="74" y2="129" gradientUnits="userSpaceOnUse">
<stop stop-color="#001B41"/>
<stop offset="1" stop-color="#112B4E" stop-opacity="0"/>
</linearGradient>
<linearGradient id="paint1_linear_89_144" x1="74" y1="-49.12" x2="74" y2="68" gradientUnits="userSpaceOnUse">
<stop stop-color="#001B41"/>
<stop offset="1" stop-color="#112B4E" stop-opacity="0"/>
</linearGradient>
</defs>
</svg>
