<svg width="96" height="96" viewBox="0 0 96 96" fill="none" xmlns="http://www.w3.org/2000/svg">
<circle cx="48" cy="48" r="48" fill="#36405F" fill-opacity="0.2"/>
<path fill-rule="evenodd" clip-rule="evenodd" d="M37.3754 71.7072C40.922 71.9228 44.4644 72.0076 48 71.9996C51.5352 72.0076 55.078 71.9228 58.6248 71.7072C61.6116 71.5256 64.4452 70.5364 66.8076 68.6096C69.0832 66.754 70.5108 64.2684 71.2212 61.484C71.878 58.912 71.9132 56.3264 71.9452 53.9908L71.946 53.9448C71.9728 51.9696 71.9952 49.988 72 48.0044V48V47.9956C71.9952 46.012 71.9728 44.0304 71.946 42.0552L71.9452 42.0092C71.9132 39.6736 71.8776 37.0881 71.2212 34.5157C70.5108 31.7314 69.0832 29.246 66.8076 27.3904C64.4452 25.4637 61.6116 24.4745 58.6248 24.2929C55.078 24.0773 51.5352 23.9923 48 24.0005C44.4644 23.9923 40.922 24.0773 37.3754 24.2929C34.3885 24.4745 31.5549 25.4637 29.1922 27.3904C26.9166 29.246 25.489 31.7314 24.7785 34.5157C24.122 37.0885 24.0867 39.6744 24.0548 42.01L24.0542 42.0552C24.0272 44.0304 24.0046 46.012 24 47.9956V48V48.0044C24.0046 49.988 24.0272 51.9696 24.0542 53.9448L24.0548 53.99C24.0867 56.3256 24.122 58.9116 24.7785 61.4844C25.489 64.2684 26.9166 66.754 29.1922 68.6096C31.5549 70.5364 34.3885 71.5256 37.3754 71.7072ZM47.9956 68.2496C44.524 68.2576 41.06 68.1744 37.603 67.964C35.3082 67.8244 33.2482 67.0784 31.5622 65.7036C29.9958 64.426 28.9539 62.6796 28.4122 60.5572C27.879 58.4672 27.837 56.3068 27.804 53.8936C27.777 51.9244 27.7548 49.9608 27.7502 48C27.7548 46.0392 27.777 44.0756 27.804 42.1064C27.837 39.6931 27.879 37.5328 28.4122 35.4429C28.9539 33.3203 29.9958 31.5739 31.5622 30.2966C33.2482 28.9217 35.3082 28.1756 37.603 28.036C41.06 27.8258 44.524 27.7423 47.9956 27.7505H48H48.0044C51.4756 27.7423 54.94 27.8258 58.3968 28.036C60.692 28.1756 62.7516 28.9217 64.4376 30.2965C66.004 31.5739 67.046 33.3203 67.5876 35.4429C68.1208 37.5328 68.1628 39.6931 68.196 42.1064C68.2228 44.0756 68.2452 46.0388 68.25 48C68.2452 49.9612 68.2228 51.9244 68.196 53.8936C68.1628 56.3068 68.1208 58.4672 67.5876 60.5572C67.046 62.6796 66.004 64.426 64.4376 65.7036C62.7516 67.0784 60.692 67.8244 58.3968 67.964C54.94 68.1744 51.4756 68.2576 48.0044 68.2496H48H47.9956Z" fill="#8893B4"/>
<path fill-rule="evenodd" clip-rule="evenodd" d="M36.3428 48.0009C36.3428 54.4389 41.562 59.6581 48 59.6581C54.438 59.6581 59.6572 54.4389 59.6572 48.0009C59.6572 41.5629 54.438 36.3438 48 36.3438C41.562 36.3438 36.3428 41.5629 36.3428 48.0009ZM48 55.9277C43.622 55.9277 40.0732 52.379 40.0732 48.0009C40.0732 43.623 43.622 40.0742 48 40.0742C52.378 40.0742 55.9268 43.623 55.9268 48.0009C55.9268 52.379 52.378 55.9277 48 55.9277Z" fill="#8893B4"/>
<path d="M63.7717 34.9714C63.7717 36.4862 62.5437 37.7142 61.0289 37.7142C59.5141 37.7142 58.2861 36.4862 58.2861 34.9714C58.2861 33.4566 59.5141 32.2285 61.0289 32.2285C62.5437 32.2285 63.7717 33.4566 63.7717 34.9714Z" fill="#8893B4"/>
</svg>
