<svg width="550" height="933" viewBox="0 0 550 933" fill="none" xmlns="http://www.w3.org/2000/svg">
<path d="M162 720.569H388V823.569C388 878.797 343.228 923.569 288 923.569H262C206.772 923.569 162 878.797 162 823.569V720.569Z" fill="#333231"/>
<path d="M159 720.569V752.75C159.244 763.72 199.665 793.268 265.782 794.439" stroke="black" stroke-width="20" stroke-linecap="round"/>
<path d="M159 770.569V802.75C159.244 813.72 199.665 843.268 265.782 844.439" stroke="black" stroke-width="20" stroke-linecap="round"/>
<path d="M161.633 824.569V847.569C168.133 863.069 200.407 880.912 240.633 884.569" stroke="black" stroke-width="20" stroke-linecap="round"/>
<path d="M174 873.569C174 932.069 383.972 962.069 383.972 824.569C383.972 824.569 383.972 750.019 383.972 719.569" stroke="black" stroke-width="20" stroke-linecap="round"/>
<g filter="url(#filter0_i_383_256)">
<ellipse cx="275" cy="720.125" rx="112.633" ry="37.3005" fill="#313131"/>
</g>
<g filter="url(#filter1_i_383_256)">
<path d="M271.5 691.569C303.782 691.569 332.614 695.634 353.042 701.958C363.316 705.14 370.903 708.722 375.702 712.236C380.711 715.903 381 718.164 381 718.569C381 718.973 380.711 721.235 375.702 724.902C370.903 728.415 363.316 731.998 353.042 735.179C332.614 741.504 303.782 745.569 271.5 745.569C239.218 745.569 210.386 741.504 189.958 735.179C179.684 731.998 172.097 728.415 167.298 724.902C162.289 721.235 162 718.973 162 718.569C162 718.164 162.289 715.903 167.298 712.236C172.097 708.722 179.684 705.14 189.958 701.958C210.386 695.634 239.218 691.569 271.5 691.569Z" stroke="black" stroke-width="20"/>
</g>
<mask id="path-8-inside-1_383_256" fill="white">
<path d="M275 0C426.878 0 550 123.122 550 275C550 340.857 526.849 401.306 488.243 448.655C464.711 477.516 441.479 507.436 429.236 542.604L404.256 614.361C385.107 669.367 333.243 706.229 275 706.229C216.756 706.229 164.893 669.367 145.744 614.362L120.763 542.603C108.52 507.436 85.2882 477.516 61.7568 448.656C23.1505 401.307 6.2594e-06 340.857 0 275C0 123.122 123.122 0 275 0Z"/>
</mask>
<path d="M275 0C426.878 0 550 123.122 550 275C550 340.857 526.849 401.306 488.243 448.655C464.711 477.516 441.479 507.436 429.236 542.604L404.256 614.361C385.107 669.367 333.243 706.229 275 706.229C216.756 706.229 164.893 669.367 145.744 614.362L120.763 542.603C108.52 507.436 85.2882 477.516 61.7568 448.656C23.1505 401.307 6.2594e-06 340.857 0 275C0 123.122 123.122 0 275 0Z" fill="url(#paint0_radial_383_256)"/>
<path d="M550 275H585H550ZM0 275H-35H0ZM120.763 542.603L87.7084 554.11L120.763 542.603ZM145.744 614.362L112.69 625.869L145.744 614.362ZM488.243 448.655L461.117 426.538L488.243 448.655ZM429.236 542.604L462.291 554.111L429.236 542.604ZM275 0V35C407.548 35 515 142.452 515 275H550H585C585 103.792 446.208 -35 275 -35V0ZM550 275H515C515 332.507 494.817 385.206 461.117 426.538L488.243 448.655L515.369 470.773C558.881 417.407 585 349.207 585 275H550ZM429.236 542.604L396.182 531.097L371.201 602.854L404.256 614.361L437.31 625.869L462.291 554.111L429.236 542.604ZM145.744 614.362L178.798 602.855L153.817 531.096L120.763 542.603L87.7084 554.11L112.69 625.869L145.744 614.362ZM61.7568 448.656L88.8829 426.538C55.1825 385.206 35 332.507 35 275H0H-35C-35 349.207 -8.88158 417.407 34.6308 470.773L61.7568 448.656ZM0 275H35C35 142.452 142.452 35 275 35V0V-35C103.792 -35 -35 103.792 -35 275H0ZM120.763 542.603L153.817 531.096C139.299 489.393 112.205 455.143 88.8829 426.538L61.7568 448.656L34.6308 470.773C58.371 499.89 77.7406 525.478 87.7084 554.11L120.763 542.603ZM275 706.229V671.229C231.651 671.229 193.051 643.794 178.798 602.855L145.744 614.362L112.69 625.869C136.736 694.941 201.862 741.229 275 741.229V706.229ZM404.256 614.361L371.201 602.854C356.949 643.794 318.349 671.229 275 671.229V706.229V741.229C348.138 741.229 413.264 694.941 437.31 625.869L404.256 614.361ZM488.243 448.655L461.117 426.538C437.794 455.142 410.7 489.394 396.182 531.097L429.236 542.604L462.291 554.111C472.258 525.478 491.628 499.889 515.369 470.773L488.243 448.655Z" fill="black" mask="url(#path-8-inside-1_383_256)"/>
<defs>
<filter id="filter0_i_383_256" x="162.367" y="672.825" width="225.266" height="84.6011" filterUnits="userSpaceOnUse" color-interpolation-filters="sRGB">
<feFlood flood-opacity="0" result="BackgroundImageFix"/>
<feBlend mode="normal" in="SourceGraphic" in2="BackgroundImageFix" result="shape"/>
<feColorMatrix in="SourceAlpha" type="matrix" values="0 0 0 0 0 0 0 0 0 0 0 0 0 0 0 0 0 0 127 0" result="hardAlpha"/>
<feOffset dy="-10"/>
<feGaussianBlur stdDeviation="15"/>
<feComposite in2="hardAlpha" operator="arithmetic" k2="-1" k3="1"/>
<feColorMatrix type="matrix" values="0 0 0 0 0 0 0 0 0 0 0 0 0 0 0 0 0 0 1 0"/>
<feBlend mode="normal" in2="shape" result="effect1_innerShadow_383_256"/>
</filter>
<filter id="filter1_i_383_256" x="152" y="671.569" width="239" height="84" filterUnits="userSpaceOnUse" color-interpolation-filters="sRGB">
<feFlood flood-opacity="0" result="BackgroundImageFix"/>
<feBlend mode="normal" in="SourceGraphic" in2="BackgroundImageFix" result="shape"/>
<feColorMatrix in="SourceAlpha" type="matrix" values="0 0 0 0 0 0 0 0 0 0 0 0 0 0 0 0 0 0 127 0" result="hardAlpha"/>
<feOffset dy="-10"/>
<feGaussianBlur stdDeviation="15"/>
<feComposite in2="hardAlpha" operator="arithmetic" k2="-1" k3="1"/>
<feColorMatrix type="matrix" values="0 0 0 0 0 0 0 0 0 0 0 0 0 0 0 0 0 0 1 0"/>
<feBlend mode="normal" in2="shape" result="effect1_innerShadow_383_256"/>
</filter>
<radialGradient id="paint0_radial_383_256" cx="0" cy="0" r="1" gradientUnits="userSpaceOnUse" gradientTransform="translate(275 96.9868) rotate(90) scale(609.242 474.468)">
<stop stop-color="#FFF9DA"/>
<stop offset="1" stop-color="#FFEE74"/>
</radialGradient>
</defs>
</svg>
