<svg width="96" height="96" viewBox="0 0 96 96" fill="none" xmlns="http://www.w3.org/2000/svg">
<circle cx="48" cy="48" r="48" fill="#36405F" fill-opacity="0.2"/>
<path d="M68.8004 64.7995V49.8563C68.8004 42.5123 67.2196 36.9023 58.6516 36.9023C54.5204 36.9023 51.7664 39.1463 50.6444 41.2883H50.5424V37.5655H42.4336V64.7995H50.8996V51.2843C50.8996 47.7143 51.5624 44.2975 55.9484 44.2975C60.2836 44.2975 60.3344 48.3263 60.3344 51.4883V64.7483H68.8004V64.7995Z" fill="#8893B4"/>
<path d="M28.6631 37.5664H37.1291V64.8004H28.6631V37.5664Z" fill="#8893B4"/>
<path d="M32.896 24C30.193 24 28 26.193 28 28.896C28 31.599 30.193 33.843 32.896 33.843C35.599 33.843 37.792 31.599 37.792 28.896C37.792 26.193 35.599 24 32.896 24Z" fill="#8893B4"/>
</svg>
