<svg width="576" height="576" viewBox="0 0 576 576" fill="none" xmlns="http://www.w3.org/2000/svg">
<path d="M243 26.9026C270.846 10.8257 305.154 10.8257 333 26.9026L491.637 118.492C519.483 134.569 536.637 164.28 536.637 196.434V379.612C536.637 411.766 519.483 441.478 491.637 457.555L333 549.144C305.154 565.221 270.846 565.221 243 549.144L84.3627 457.555C56.5166 441.478 39.3627 411.766 39.3627 379.612V196.434C39.3627 164.28 56.5166 134.569 84.3627 118.492L243 26.9026Z" fill="#00142D"/>
<g filter="url(#filter0_d_827_68)">
<path d="M243 116.058C270.846 99.9808 305.154 99.9808 333 116.058L424.865 169.097C452.711 185.174 469.865 214.885 469.865 247.039V353.115C469.865 385.269 452.711 414.981 424.865 431.058L333 484.097C305.154 500.174 270.846 500.174 243 484.097L151.135 431.058C123.289 414.981 106.135 385.269 106.135 353.115V247.039C106.135 214.885 123.289 185.174 151.135 169.097L243 116.058ZM418.735 230.404C412.289 219.781 398.45 216.395 387.827 222.842L289.412 282.564L188.475 222.723C177.786 216.386 163.983 219.914 157.646 230.603C151.308 241.292 154.836 255.094 165.525 261.432L267.047 321.62V409.577C267.047 422.003 277.121 432.077 289.547 432.077C301.973 432.077 312.047 422.004 312.047 409.577V321.467L411.173 261.313C421.796 254.866 425.182 241.028 418.735 230.404Z" fill="#0975DA"/>
</g>
<defs>
<filter id="filter0_d_827_68" x="76.1348" y="74" width="423.73" height="452.154" filterUnits="userSpaceOnUse" color-interpolation-filters="sRGB">
<feFlood flood-opacity="0" result="BackgroundImageFix"/>
<feColorMatrix in="SourceAlpha" type="matrix" values="0 0 0 0 0 0 0 0 0 0 0 0 0 0 0 0 0 0 127 0" result="hardAlpha"/>
<feOffset/>
<feGaussianBlur stdDeviation="15"/>
<feComposite in2="hardAlpha" operator="out"/>
<feColorMatrix type="matrix" values="0 0 0 0 0.0352941 0 0 0 0 0.458824 0 0 0 0 0.854902 0 0 0 0.5 0"/>
<feBlend mode="normal" in2="BackgroundImageFix" result="effect1_dropShadow_827_68"/>
<feBlend mode="normal" in="SourceGraphic" in2="effect1_dropShadow_827_68" result="shape"/>
</filter>
</defs>
</svg>
