<svg width="288" height="289" viewBox="0 0 288 289" fill="none" xmlns="http://www.w3.org/2000/svg">
<path d="M121.948 13.9123C135.871 5.87379 153.025 5.87378 166.948 13.9123L246.266 59.7065C260.189 67.745 268.766 82.6007 268.766 98.6776V190.266C268.766 206.343 260.189 221.199 246.266 229.237L166.948 275.031C153.025 283.07 135.871 283.07 121.948 275.032L42.6305 229.237C28.7075 221.199 20.1305 206.343 20.1305 190.266V98.6777C20.1305 82.6007 28.7074 67.745 42.6305 59.7065L121.948 13.9123Z" fill="#00142D"/>
<g filter="url(#filter0_d_827_68)">
<path d="M121.948 58.4902C135.871 50.4518 153.025 50.4518 166.948 58.4902L212.881 85.0088C226.804 93.0472 235.381 107.903 235.381 123.979V177.018C235.381 193.095 226.804 207.951 212.881 215.989L166.948 242.508C153.025 250.546 135.871 250.546 121.948 242.508L76.0166 215.989C62.0936 207.951 53.5166 193.095 53.5166 177.018V123.979C53.5167 107.903 62.0937 93.0472 76.0166 85.0088L121.948 58.4902ZM209.816 115.662C206.593 110.351 199.674 108.659 194.362 111.882L145.154 141.742L94.6865 111.822C89.3421 108.654 82.4412 110.417 79.2725 115.762C76.1039 121.106 77.8676 128.007 83.2119 131.176L133.973 161.271V205.249C133.973 211.462 139.01 216.499 145.223 216.499C151.435 216.499 156.472 211.462 156.473 205.249V161.193L206.035 131.116C211.346 127.893 213.04 120.974 209.816 115.662Z" fill="#0975DA"/>
</g>
<defs>
<filter id="filter0_d_827_68" x="23.5166" y="22.4609" width="241.864" height="256.076" filterUnits="userSpaceOnUse" color-interpolation-filters="sRGB">
<feFlood flood-opacity="0" result="BackgroundImageFix"/>
<feColorMatrix in="SourceAlpha" type="matrix" values="0 0 0 0 0 0 0 0 0 0 0 0 0 0 0 0 0 0 127 0" result="hardAlpha"/>
<feOffset/>
<feGaussianBlur stdDeviation="15"/>
<feComposite in2="hardAlpha" operator="out"/>
<feColorMatrix type="matrix" values="0 0 0 0 0.0352941 0 0 0 0 0.458824 0 0 0 0 0.854902 0 0 0 0.5 0"/>
<feBlend mode="normal" in2="BackgroundImageFix" result="effect1_dropShadow_827_68"/>
<feBlend mode="normal" in="SourceGraphic" in2="effect1_dropShadow_827_68" result="shape"/>
</filter>
</defs>
</svg>
