<svg width="107" height="124" viewBox="0 0 107 124" fill="none" xmlns="http://www.w3.org/2000/svg">
<path d="M19.2858 30.465H29.4058C29.7358 30.465 30.0108 30.5933 30.2308 30.85C30.4875 31.07 30.6158 31.345 30.6158 31.675V36.845C30.6158 37.175 30.4875 37.45 30.2308 37.67C30.0108 37.89 29.7358 38 29.4058 38H1.63078C1.30078 38 1.00745 37.89 0.750785 37.67C0.530784 37.45 0.420784 37.175 0.420784 36.845V31.675C0.420784 31.345 0.530784 31.07 0.750785 30.85C1.00745 30.5933 1.30078 30.465 1.63078 30.465H11.7508V7.86H1.63078C1.30078 7.86 1.00745 7.75 0.750785 7.53C0.530784 7.27333 0.420784 6.98 0.420784 6.65V1.48C0.420784 1.15 0.530784 0.874998 0.750785 0.654999C1.00745 0.434997 1.30078 0.324997 1.63078 0.324997H18.0758C18.4058 0.324997 18.6808 0.434997 18.9008 0.654999C19.1575 0.874998 19.2858 1.15 19.2858 1.48V30.465ZM89.8104 22.93C89.4804 22.93 89.1871 22.82 88.9304 22.6C88.7104 22.3433 88.6004 22.05 88.6004 21.72V16.605C88.6004 16.275 88.7104 16 88.9304 15.78C89.1871 15.5233 89.4804 15.395 89.8104 15.395H93.8254C94.1554 15.395 94.4304 15.5233 94.6504 15.78C94.9071 16 95.0354 16.275 95.0354 16.605V21.72C95.0354 22.05 94.9071 22.3433 94.6504 22.6C94.4304 22.82 94.1554 22.93 93.8254 22.93H89.8104ZM97.1804 0.324997C98.5371 0.324997 99.8021 0.581664 100.975 1.095C102.149 1.60833 103.175 2.305 104.055 3.185C104.935 4.065 105.632 5.09167 106.145 6.265C106.659 7.43833 106.915 8.685 106.915 10.005V28.32C106.915 29.64 106.659 30.8867 106.145 32.06C105.632 33.2333 104.935 34.26 104.055 35.14C103.175 36.02 102.149 36.7167 100.975 37.23C99.8021 37.7433 98.5371 38 97.1804 38H86.4554C85.0987 38 83.8337 37.7433 82.6604 37.23C81.4871 36.7167 80.4604 36.02 79.5804 35.14C78.7004 34.26 78.0037 33.2333 77.4904 32.06C76.9771 30.8867 76.7204 29.64 76.7204 28.32V10.005C76.7204 8.685 76.9771 7.43833 77.4904 6.265C78.0037 5.09167 78.7004 4.065 79.5804 3.185C80.4604 2.305 81.4871 1.60833 82.6604 1.095C83.8337 0.581664 85.0987 0.324997 86.4554 0.324997H97.1804ZM99.3804 10.005C99.3804 9.38167 99.1604 8.86833 98.7204 8.465C98.3171 8.06167 97.8037 7.86 97.1804 7.86H86.4554C85.8321 7.86 85.3004 8.06167 84.8604 8.465C84.4571 8.86833 84.2554 9.38167 84.2554 10.005V28.32C84.2554 28.9433 84.4571 29.4567 84.8604 29.86C85.3004 30.2633 85.8321 30.465 86.4554 30.465H97.1804C97.8037 30.465 98.3171 30.2633 98.7204 29.86C99.1604 29.4567 99.3804 28.9433 99.3804 28.32V10.005ZM13.5108 108.93C13.1808 108.93 12.8875 108.82 12.6308 108.6C12.4108 108.343 12.3008 108.05 12.3008 107.72V102.605C12.3008 102.275 12.4108 102 12.6308 101.78C12.8875 101.523 13.1808 101.395 13.5108 101.395H17.5258C17.8558 101.395 18.1308 101.523 18.3508 101.78C18.6075 102 18.7358 102.275 18.7358 102.605V107.72C18.7358 108.05 18.6075 108.343 18.3508 108.6C18.1308 108.82 17.8558 108.93 17.5258 108.93H13.5108ZM20.8808 86.325C22.2375 86.325 23.5025 86.5817 24.6758 87.095C25.8491 87.6083 26.8758 88.305 27.7558 89.185C28.6358 90.065 29.3325 91.0917 29.8458 92.265C30.3591 93.4383 30.6158 94.685 30.6158 96.005V114.32C30.6158 115.64 30.3591 116.887 29.8458 118.06C29.3325 119.233 28.6358 120.26 27.7558 121.14C26.8758 122.02 25.8491 122.717 24.6758 123.23C23.5025 123.743 22.2375 124 20.8808 124H10.1558C8.79912 124 7.53412 123.743 6.36078 123.23C5.18745 122.717 4.16078 122.02 3.28078 121.14C2.40078 120.26 1.70412 119.233 1.19078 118.06C0.677451 116.887 0.420784 115.64 0.420784 114.32V96.005C0.420784 94.685 0.677451 93.4383 1.19078 92.265C1.70412 91.0917 2.40078 90.065 3.28078 89.185C4.16078 88.305 5.18745 87.6083 6.36078 87.095C7.53412 86.5817 8.79912 86.325 10.1558 86.325H20.8808ZM23.0808 96.005C23.0808 95.3817 22.8608 94.8683 22.4208 94.465C22.0175 94.0617 21.5041 93.86 20.8808 93.86H10.1558C9.53245 93.86 9.00079 94.0617 8.56079 94.465C8.15745 94.8683 7.95578 95.3817 7.95578 96.005V114.32C7.95578 114.943 8.15745 115.457 8.56079 115.86C9.00079 116.263 9.53245 116.465 10.1558 116.465H20.8808C21.5041 116.465 22.0175 116.263 22.4208 115.86C22.8608 115.457 23.0808 114.943 23.0808 114.32V96.005ZM95.5854 116.465H105.705C106.035 116.465 106.31 116.593 106.53 116.85C106.787 117.07 106.915 117.345 106.915 117.675V122.845C106.915 123.175 106.787 123.45 106.53 123.67C106.31 123.89 106.035 124 105.705 124H77.9304C77.6004 124 77.3071 123.89 77.0504 123.67C76.8304 123.45 76.7204 123.175 76.7204 122.845V117.675C76.7204 117.345 76.8304 117.07 77.0504 116.85C77.3071 116.593 77.6004 116.465 77.9304 116.465H88.0504V93.86H77.9304C77.6004 93.86 77.3071 93.75 77.0504 93.53C76.8304 93.2733 76.7204 92.98 76.7204 92.65V87.48C76.7204 87.15 76.8304 86.875 77.0504 86.655C77.3071 86.435 77.6004 86.325 77.9304 86.325H94.3754C94.7054 86.325 94.9804 86.435 95.2004 86.655C95.4571 86.875 95.5854 87.15 95.5854 87.48V116.465Z" fill="#E9F1F7"/>
</svg>
