<svg width="167" height="156" viewBox="0 0 167 156" fill="none" xmlns="http://www.w3.org/2000/svg">
<rect x="3.5" y="30.5" width="160" height="122" rx="20.5" stroke="#E9F1F7" stroke-width="7"/>
<path d="M49.8777 112.827C45.7418 115.561 47.6769 121.999 52.6343 121.999L122.579 122C126.126 122 128.545 118.409 127.213 115.122L112.438 78.6617C111.252 75.7344 107.683 74.6267 105.048 76.368L49.8777 112.827Z" fill="#E9F1F7"/>
<circle cx="55" cy="74" r="9" fill="#E9F1F7"/>
<path d="M42.0803 11.5673C42.6411 9.6488 45.3589 9.6488 45.9197 11.5673L49.4418 23.6166C49.6057 24.1773 50.0065 24.6383 50.539 24.8785L58.8278 28.6178C60.4184 29.3353 60.3915 31.6032 58.7844 32.2829L50.58 35.7528C50.0235 35.9882 49.6032 36.4626 49.4366 37.0435L45.8606 49.5122C45.3117 51.4262 42.6081 51.4499 42.0256 49.5459L38.1895 37.0059C38.0185 36.4469 37.6114 35.9906 37.0753 35.7573L29.1373 32.3012C27.5466 31.6087 27.5317 29.3579 29.1132 28.6444L37.461 24.8785C37.9935 24.6383 38.3943 24.1773 38.5582 23.6166L42.0803 11.5673Z" fill="#E9F1F7"/>
<path d="M40.1552 13.3968C41.2636 9.53473 46.7364 9.53473 47.8448 13.3968L50.1575 21.4554C50.4319 22.4115 51.0527 23.231 51.8987 23.7541L56.3187 26.4871C58.8897 28.0768 58.8362 31.834 56.2211 33.3499L51.9882 35.8036C51.0877 36.3256 50.4261 37.1781 50.144 38.1801L47.7264 46.7661C46.6415 50.6191 41.1966 50.6662 40.0452 46.8326L37.4211 38.0958C37.1354 37.1445 36.506 36.3336 35.6553 35.8208L31.6106 33.3824C29.0478 31.8374 29.0269 28.1284 31.5721 26.5546L36.1013 23.7541C36.9473 23.231 37.5681 22.4115 37.8425 21.4554L40.1552 13.3968Z" stroke="#021B3A" stroke-width="5"/>
</svg>
