<svg width="149" height="100" viewBox="0 0 149 100" fill="none" xmlns="http://www.w3.org/2000/svg">
<circle cx="29" cy="30" r="11.5" stroke="#E9F1F7" stroke-width="7"/>
<circle cx="120" cy="30" r="11.5" stroke="#E9F1F7" stroke-width="7"/>
<circle cx="74.5" cy="22.5" r="19" stroke="#E9F1F7" stroke-width="7"/>
<path d="M113 96C113 90.4845 112.004 85.023 110.069 79.9273C108.135 74.8316 105.299 70.2016 101.724 66.3015C98.1486 62.4015 93.9043 59.3078 89.2333 57.1971C84.5623 55.0864 79.5559 54 74.5 54C69.4441 54 64.4377 55.0864 59.7667 57.1971C55.0957 59.3078 50.8514 62.4015 47.2764 66.3015C43.7013 70.2016 40.8654 74.8316 38.9306 79.9273C36.9958 85.023 36 90.4845 36 96" stroke="#E9F1F7" stroke-width="7" stroke-linecap="round"/>
<path d="M47 62.201C44.661 59.601 41.8842 57.5385 38.8282 56.1314C35.7721 54.7242 32.4967 54 29.1888 54C25.881 54 22.6055 54.7242 19.5495 56.1314C16.4934 57.5385 13.7166 59.601 11.3776 62.201C9.03863 64.8011 7.18324 67.8877 5.91738 71.2849C4.65153 74.682 4 78.323 4 82" stroke="#E9F1F7" stroke-width="7" stroke-linecap="round"/>
<path d="M145 82C145 78.323 144.348 74.682 143.083 71.2849C141.817 67.8877 139.961 64.801 137.622 62.201C135.283 59.601 132.507 57.5385 129.451 56.1314C126.394 54.7242 123.119 54 119.811 54C116.503 54 113.228 54.7242 110.172 56.1314C107.116 57.5385 104.339 59.601 102 62.201" stroke="#E9F1F7" stroke-width="7" stroke-linecap="round"/>
</svg>
