<svg width="100" height="131" viewBox="0 0 100 131" fill="none" xmlns="http://www.w3.org/2000/svg">
<rect x="30.5" y="3.5" width="66" height="124" rx="6.5" stroke="#E9F1F7" stroke-width="7"/>
<rect x="47" y="116" width="33" height="5" rx="2.5" fill="#E9F1F7"/>
<mask id="path-3-inside-1_890_159" fill="white">
<path d="M56 73C56 73.0294 55.9976 73.0586 55.9971 73.0879C55.9976 73.0918 56 73.0956 56 73.0996V85.1719C55.9998 86.9535 53.8448 87.8458 52.585 86.5859L46.0503 80.0505C44.7375 78.7376 42.9569 78 41.1003 78H7C3.13401 78 0 74.866 0 71V40C0 36.134 3.13401 33 7 33H49C52.866 33 56 36.134 56 40V73Z"/>
</mask>
<path d="M56 73C56 73.0294 55.9976 73.0586 55.9971 73.0879C55.9976 73.0918 56 73.0956 56 73.0996V85.1719C55.9998 86.9535 53.8448 87.8458 52.585 86.5859L46.0503 80.0505C44.7375 78.7376 42.9569 78 41.1003 78H7C3.13401 78 0 74.866 0 71V40C0 36.134 3.13401 33 7 33H49C52.866 33 56 36.134 56 40V73Z" fill="#021B3A"/>
<path d="M55.9971 73.0879L51.9977 73.0189L51.9928 73.2994L52.0272 73.5779L55.9971 73.0879ZM56 73.0996H60V73.092L60 73.0844L56 73.0996ZM56 85.1719L60 85.1724V85.1719H56ZM52.585 86.5859L49.7564 89.4142L49.7565 89.4143L52.585 86.5859ZM46.0503 80.0505L43.2217 82.8788L46.0503 80.0505ZM56 73H52C52 72.9762 52.0002 72.9553 52.0006 72.9376C52.0009 72.92 52.0013 72.9051 52.0017 72.8937C52.002 72.8824 52.0024 72.8735 52.0026 72.8683C52.0028 72.8633 52.0029 72.8602 52.0029 72.8614C52.0029 72.862 52.0028 72.8627 52.0027 72.8648C52.0027 72.8666 52.0025 72.8696 52.0024 72.8729C52.0021 72.8795 52.0016 72.8903 52.0011 72.903C52.0005 72.9159 51.9999 72.9325 51.9993 72.9516C51.9987 72.9708 51.9981 72.9935 51.9977 73.0189L55.9971 73.0879L59.9965 73.1569C59.9959 73.1921 59.9948 73.2185 59.9944 73.2289C59.9942 73.2347 59.9937 73.2455 59.9946 73.2266C59.9951 73.2156 59.9964 73.186 59.9976 73.1503C59.9987 73.1134 60 73.0615 60 73H56ZM55.9971 73.0879L52.0272 73.5779C52.0665 73.8961 52.136 74.1413 52.1735 74.2635C52.193 74.3272 52.21 74.3767 52.217 74.3971C52.2206 74.4076 52.2236 74.4161 52.2237 74.4163C52.2247 74.4191 52.2222 74.4119 52.2196 74.4044C52.2124 74.3839 52.1593 74.2335 52.1117 74.0371C52.0614 73.8291 52.0015 73.5094 52 73.1148L56 73.0996L60 73.0844C59.9985 72.6878 59.9383 72.3661 59.8875 72.1562C59.8395 71.9577 59.7856 71.8054 59.7779 71.783C59.7751 71.775 59.7724 71.7674 59.7732 71.7697C59.7733 71.7698 59.774 71.7719 59.775 71.7747C59.776 71.7775 59.7775 71.7819 59.7794 71.7874C59.7861 71.8069 59.8027 71.8554 59.822 71.9181C59.8589 72.0384 59.9279 72.2817 59.9669 72.5979L55.9971 73.0879ZM56 73.0996H52V85.1719H56H60V73.0996H56ZM56 85.1719L52 85.1714C52.0002 83.3888 54.1542 82.4983 55.4134 83.7575L52.585 86.5859L49.7565 89.4143C53.5355 93.1934 59.9994 90.5182 60 85.1724L56 85.1719ZM52.585 86.5859L55.4135 83.7577L48.8789 77.2223L46.0503 80.0505L43.2217 82.8788L49.7564 89.4142L52.585 86.5859ZM41.1003 78V74H7V78V82H41.1003V78ZM0 71H4V40H0H-4V71H0ZM7 33V37H49V33V29H7V33ZM56 40H52V73H56H60V40H56ZM49 33V37C50.6569 37 52 38.3431 52 40H56H60C60 33.9249 55.0751 29 49 29V33ZM0 40H4C4 38.3431 5.34315 37 7 37V33V29C0.924868 29 -4 33.9249 -4 40H0ZM7 78V74C5.34315 74 4 72.6569 4 71H0H-4C-4 77.0751 0.92487 82 7 82V78ZM46.0503 80.0505L48.8789 77.2223C46.816 75.1591 44.0179 74 41.1003 74V78V82C41.896 82 42.6591 82.3161 43.2217 82.8788L46.0503 80.0505Z" fill="#E9F1F7" mask="url(#path-3-inside-1_890_159)"/>
<path d="M32 47C35.3137 47 38 49.6863 38 53C38 54.7737 37.2293 56.3664 36.0059 57.4648L29.459 64.4453C28.6689 65.2874 27.3311 65.2874 26.541 64.4453L19.9932 57.4648C18.77 56.3664 18 54.7734 18 53C18 49.6863 20.6863 47 24 47C25.5368 47 26.9385 47.5781 28 48.5283C29.0615 47.5781 30.4632 47 32 47Z" fill="#E9F1F7"/>
</svg>
