<svg width="160" height="140" viewBox="0 0 160 140" fill="none" xmlns="http://www.w3.org/2000/svg">
<rect x="99" y="14.0001" width="7" height="98" rx="3.5" fill="#E9F1F7"/>
<path d="M76.5198 100.915C81.6808 97.9588 87.1133 96.8709 91.6378 97.3506C96.1669 97.8309 99.5119 99.818 101.222 102.757C102.933 105.696 102.995 109.563 101.15 113.694C99.3065 117.821 95.6411 121.945 90.4799 124.901C85.3187 127.857 79.8859 128.944 75.3613 128.464C70.8324 127.984 67.4881 125.996 65.7775 123.057C64.0671 120.118 64.004 116.252 65.8492 112.121C67.6926 107.994 71.3586 103.871 76.5198 100.915Z" stroke="#E9F1F7" stroke-width="7"/>
<path d="M103.636 16.6302L146.797 5.0652C147.75 4.81019 148.685 5.52696 148.686 6.51255L148.704 25.0222C148.705 25.6991 148.252 26.2926 147.599 26.4708L104.439 38.2521C103.485 38.5123 102.545 37.7949 102.544 36.8065L102.525 18.0806C102.524 17.4013 102.98 16.8061 103.636 16.6302Z" stroke="#E9F1F7" stroke-width="7"/>
<rect y="22.0001" width="83" height="7" rx="3.5" fill="#E9F1F7"/>
<rect y="44.0001" width="83" height="7" rx="3.5" fill="#E9F1F7"/>
<rect y="66.0001" width="83" height="7" rx="3.5" fill="#E9F1F7"/>
</svg>
