<svg width="150" height="149" viewBox="0 0 150 149" fill="none" xmlns="http://www.w3.org/2000/svg">
<rect x="3.5" y="3.5" width="87" height="87" rx="16.5" stroke="#E9F1F7" stroke-width="7"/>
<path d="M47.28 20.725C47.1333 21.2383 46.9867 21.7517 46.84 22.265C46.73 22.7417 46.62 23.2 46.51 23.64C46.18 25.3633 45.8683 27.3433 45.575 29.58C45.2817 31.78 45.0433 34.09 44.86 36.51C44.6767 38.8933 44.585 41.24 44.585 43.55C44.585 46.41 44.7317 49.05 45.025 51.47C45.3183 53.8533 45.7217 56.0717 46.235 58.125C46.785 60.1417 47.3717 62.0667 47.995 63.9L41.67 65.825C41.12 64.175 40.5883 62.2133 40.075 59.94C39.5983 57.6667 39.195 55.2283 38.865 52.625C38.535 49.985 38.37 47.3267 38.37 44.65C38.37 42.8167 38.425 40.9833 38.535 39.15C38.6817 37.28 38.8283 35.4467 38.975 33.65C39.1217 31.8167 39.2867 30.075 39.47 28.425C39.69 26.7383 39.8733 25.2167 40.02 23.86C40.0567 23.3467 40.0933 22.7967 40.13 22.21C40.1667 21.5867 40.1667 21.0367 40.13 20.56L47.28 20.725ZM37.49 26.83C40.9733 26.83 44.2367 26.7567 47.28 26.61C50.36 26.4633 53.3117 26.2067 56.135 25.84C58.995 25.4733 61.8367 24.9417 64.66 24.245L64.715 30.625C62.8083 30.955 60.7 31.2667 58.39 31.56C56.1167 31.8167 53.7333 32.0367 51.24 32.22C48.7833 32.4033 46.3633 32.55 43.98 32.66C41.5967 32.7333 39.36 32.77 37.27 32.77C36.3167 32.77 35.235 32.7517 34.025 32.715C32.8517 32.6783 31.6783 32.6417 30.505 32.605C29.3683 32.5317 28.3783 32.4767 27.535 32.44L27.37 26.06C27.9933 26.1333 28.8917 26.2433 30.065 26.39C31.2383 26.5 32.485 26.61 33.805 26.72C35.1617 26.7933 36.39 26.83 37.49 26.83ZM61.195 34.86C61.085 35.19 60.92 35.6483 60.7 36.235C60.48 36.8217 60.26 37.4267 60.04 38.05C59.8567 38.6733 59.71 39.1683 59.6 39.535C58.5367 42.835 57.235 45.86 55.695 48.61C54.1917 51.3233 52.56 53.7067 50.8 55.76C49.04 57.7767 47.2983 59.4267 45.575 60.71C43.7783 62.0667 41.725 63.2583 39.415 64.285C37.105 65.275 34.7767 65.77 32.43 65.77C31.11 65.77 29.8817 65.495 28.745 64.945C27.6083 64.395 26.6917 63.5333 25.995 62.36C25.335 61.15 25.005 59.6283 25.005 57.795C25.005 55.815 25.4083 53.8717 26.215 51.965C27.0217 50.0583 28.14 48.2433 29.57 46.52C31 44.7967 32.6683 43.275 34.575 41.955C36.4817 40.5983 38.535 39.535 40.735 38.765C42.5317 38.105 44.4933 37.5733 46.62 37.17C48.7833 36.7667 50.91 36.565 53 36.565C56.41 36.565 59.4533 37.1883 62.13 38.435C64.8433 39.6817 66.97 41.3867 68.51 43.55C70.05 45.7133 70.82 48.2433 70.82 51.14C70.82 53.0833 70.5083 54.99 69.885 56.86C69.2617 58.6933 68.235 60.3983 66.805 61.975C65.4117 63.5517 63.56 64.9083 61.25 66.045C58.94 67.1817 56.0983 68.0067 52.725 68.52L49.095 62.745C52.615 62.3417 55.475 61.5533 57.675 60.38C59.875 59.17 61.47 57.7217 62.46 56.035C63.4867 54.3483 64 52.6067 64 50.81C64 49.1967 63.56 47.7483 62.68 46.465C61.8367 45.1817 60.5533 44.155 58.83 43.385C57.1433 42.5783 55.0533 42.175 52.56 42.175C50.0667 42.175 47.83 42.45 45.85 43C43.9067 43.55 42.275 44.1367 40.955 44.76C39.1217 45.64 37.49 46.7583 36.06 48.115C34.63 49.435 33.5117 50.8283 32.705 52.295C31.8983 53.7617 31.495 55.1183 31.495 56.365C31.495 57.245 31.6967 57.9233 32.1 58.4C32.5033 58.84 33.145 59.06 34.025 59.06C35.345 59.06 36.8667 58.6383 38.59 57.795C40.3133 56.915 42.0183 55.6867 43.705 54.11C45.685 52.2767 47.555 50.0767 49.315 47.51C51.075 44.9433 52.5233 41.7533 53.66 37.94C53.77 37.5733 53.88 37.0967 53.99 36.51C54.1 35.9233 54.1917 35.3367 54.265 34.75C54.375 34.1267 54.4483 33.6317 54.485 33.265L61.195 34.86Z" fill="white"/>
<rect x="59.5" y="58.5" width="87" height="87" rx="16.5" fill="#021B3A" stroke="#E9F1F7" stroke-width="7"/>
<path d="M108.96 82.27C109.29 82.27 109.602 82.38 109.895 82.6C110.225 82.82 110.445 83.0767 110.555 83.37L118.475 103.06C118.585 103.353 118.677 103.738 118.75 104.215C118.86 104.655 118.915 105.04 118.915 105.37V118.79C118.915 119.12 118.787 119.413 118.53 119.67C118.31 119.89 118.035 120 117.705 120H112.535C112.205 120 111.912 119.89 111.655 119.67C111.435 119.413 111.325 119.12 111.325 118.79V112.465H96.2554V118.79C96.2554 119.12 96.1271 119.413 95.8704 119.67C95.6504 119.89 95.3754 120 95.0454 120H89.9304C89.6004 120 89.3071 119.89 89.0504 119.67C88.8304 119.413 88.7204 119.12 88.7204 118.79V105.37C88.7204 105.04 88.7571 104.655 88.8304 104.215C88.9404 103.738 89.0504 103.353 89.1604 103.06L97.0254 83.37C97.1721 83.0767 97.3921 82.82 97.6854 82.6C98.0154 82.38 98.3454 82.27 98.6754 82.27H108.96ZM96.5304 104.93H111.05L105 89.805H102.58L96.5304 104.93Z" fill="white"/>
</svg>
